<svg width="45" height="45" viewBox="0 0 45 45" fill="none" xmlns="http://www.w3.org/2000/svg">
<path d="M22.5 0C25.4837 0 28.3452 1.18526 30.455 3.29505C32.5647 5.40483 33.75 8.26631 33.75 11.25C33.75 14.2337 32.5647 17.0952 30.455 19.205C28.3452 21.3147 25.4837 22.5 22.5 22.5C19.5163 22.5 16.6548 21.3147 14.545 19.205C12.4353 17.0952 11.25 14.2337 11.25 11.25C11.25 8.26631 12.4353 5.40483 14.545 3.29505C16.6548 1.18526 19.5163 0 22.5 0ZM22.5 5.625C21.0082 5.625 19.5774 6.21763 18.5225 7.27252C17.4676 8.32742 16.875 9.75816 16.875 11.25C16.875 12.7418 17.4676 14.1726 18.5225 15.2275C19.5774 16.2824 21.0082 16.875 22.5 16.875C23.9918 16.875 25.4226 16.2824 26.4775 15.2275C27.5324 14.1726 28.125 12.7418 28.125 11.25C28.125 9.75816 27.5324 8.32742 26.4775 7.27252C25.4226 6.21763 23.9918 5.625 22.5 5.625ZM22.5 25.3125C30.0094 25.3125 45 29.0531 45 36.5625V45H0V36.5625C0 29.0531 14.9906 25.3125 22.5 25.3125ZM22.5 30.6562C14.1469 30.6562 5.34375 34.7625 5.34375 36.5625V39.6563H39.6563V36.5625C39.6563 34.7625 30.8531 30.6562 22.5 30.6562Z" fill="#80838C"/>
</svg>
